<svg viewBox="0 0 1024 576" xmlns="http://www.w3.org/2000/svg" width="1024" height="576">
  <!-- Dull grey sky -->
  <rect width="1024" height="576" fill="#b0bec5"/>
  <rect width="1024" height="200" fill="#90a4ae" opacity="0.5"/>
  <!-- Cloud layers - shifted right, top-left clear for Lottie -->
  <ellipse cx="580" cy="90" rx="180" ry="72" fill="#d8e2e7"/>
  <ellipse cx="760" cy="70" rx="200" ry="80" fill="#dde4e8"/>
  <ellipse cx="960" cy="95" rx="170" ry="70" fill="#cfd8dc"/>
  <!-- Mid cloud layer right side -->
  <ellipse cx="620" cy="155" rx="200" ry="65" fill="#c8d4da" opacity="0.95"/>
  <ellipse cx="850" cy="145" rx="210" ry="68" fill="#c0ccd2" opacity="0.9"/>
  <!-- Subtle left sky cloud hint - soft, not blocking -->
  <ellipse cx="180" cy="200" rx="200" ry="55" fill="#b8c6ce" opacity="0.55"/>
  <ellipse cx="420" cy="210" rx="220" ry="58" fill="#bec9d0" opacity="0.6"/>
  <!-- Lower atmosphere -->
  <ellipse cx="700" cy="225" rx="230" ry="62" fill="#b8c6ce" opacity="0.85"/>
  <ellipse cx="980" cy="238" rx="180" ry="58" fill="#b8c6ce" opacity="0.8"/>
  <!-- Muted horizon -->
  <rect x="0" y="490" width="1024" height="86" fill="#a0b0b8" opacity="0.35"/>
  <!-- ===== HOUSE ===== -->
  <rect x="620" y="340" width="404" height="236" fill="#dde4e8"/>
  <line x1="620" y1="368" x2="1024" y2="368" stroke="#c8d2d8" stroke-width="2"/>
  <line x1="620" y1="396" x2="1024" y2="396" stroke="#c8d2d8" stroke-width="2"/>
  <line x1="620" y1="424" x2="1024" y2="424" stroke="#c8d2d8" stroke-width="2"/>
  <line x1="620" y1="452" x2="1024" y2="452" stroke="#c8d2d8" stroke-width="2"/>
  <line x1="620" y1="480" x2="1024" y2="480" stroke="#c8d2d8" stroke-width="2"/>
  <line x1="620" y1="508" x2="1024" y2="508" stroke="#c8d2d8" stroke-width="2"/>
  <line x1="620" y1="536" x2="1024" y2="536" stroke="#c8d2d8" stroke-width="2"/>
  <polygon points="596,348 1024,348 1024,305 812,240 596,305" fill="#9aaab2"/>
  <line x1="596" y1="305" x2="812" y2="240" stroke="#8899a0" stroke-width="2"/>
  <line x1="812" y1="240" x2="1024" y2="305" stroke="#8899a0" stroke-width="2"/>
  <rect x="596" y="340" width="428" height="16" fill="#b8c4ca"/>
  <rect x="596" y="356" width="428" height="8" fill="#9aaab2"/>
  <rect x="648" y="400" width="120" height="130" fill="#b8ccd8" opacity="0.75"/>
  <rect x="648" y="400" width="120" height="130" fill="none" stroke="#9aaab2" stroke-width="3"/>
  <line x1="708" y1="400" x2="708" y2="530" stroke="#9aaab2" stroke-width="2"/>
  <line x1="648" y1="465" x2="768" y2="465" stroke="#9aaab2" stroke-width="2"/>
  <rect x="830" y="400" width="120" height="130" fill="#b8ccd8" opacity="0.75"/>
  <rect x="830" y="400" width="120" height="130" fill="none" stroke="#9aaab2" stroke-width="3"/>
  <line x1="890" y1="400" x2="890" y2="530" stroke="#9aaab2" stroke-width="2"/>
  <line x1="830" y1="465" x2="950" y2="465" stroke="#9aaab2" stroke-width="2"/>
  <rect x="740" y="263" width="70" height="56" fill="#b8ccd8" opacity="0.65"/>
  <rect x="740" y="263" width="70" height="56" fill="none" stroke="#8899a0" stroke-width="2"/>
  <line x1="775" y1="263" x2="775" y2="319" stroke="#8899a0" stroke-width="1.5"/>
</svg>
