<svg viewBox="0 0 1024 576" xmlns="http://www.w3.org/2000/svg" width="1024" height="576">
  <!-- Sky - bluer on left, cloudier on right -->
  <rect width="1024" height="576" fill="#8bbcd4"/>
  <rect width="500" height="576" fill="#72b8e0" opacity="0.55"/>
  <!-- Sun peeking out left side -->
  <circle cx="240" cy="180" r="120" fill="#ffe082" opacity="0.35"/>
  <circle cx="240" cy="180" r="85" fill="#fff9c4" opacity="0.45"/>
  <circle cx="240" cy="180" r="62" fill="#FFD54F"/>
  <circle cx="240" cy="180" r="52" fill="#FFCA28"/>
  <!-- Sun rays -->
  <g stroke="#FFD54F" stroke-width="6" stroke-linecap="round" opacity="0.75">
    <line x1="240" y1="108" x2="240" y2="88"/>
    <line x1="240" y1="252" x2="240" y2="272"/>
    <line x1="168" y1="180" x2="148" y2="180"/>
    <line x1="312" y1="180" x2="332" y2="180"/>
    <line x1="189" y1="129" x2="175" y2="115"/>
    <line x1="291" y1="231" x2="305" y2="245"/>
    <line x1="291" y1="129" x2="305" y2="115"/>
    <line x1="189" y1="231" x2="175" y2="245"/>
  </g>
  <!-- Clouds starting mid and covering right -->
  <ellipse cx="600" cy="90" rx="200" ry="72" fill="#dde8f0"/>
  <ellipse cx="750" cy="70" rx="180" ry="68" fill="#e8edf4"/>
  <ellipse cx="920" cy="95" rx="160" ry="65" fill="#dde8f0"/>
  <ellipse cx="1010" cy="75" rx="140" ry="62" fill="#e4eaf3"/>
  <!-- Clouds crossing over sun area partially -->
  <ellipse cx="430" cy="110" rx="170" ry="60" fill="#e0ecf5" opacity="0.85"/>
  <ellipse cx="560" cy="95" rx="190" ry="65" fill="#d8e8f2" opacity="0.9"/>
  <!-- Mid cloud layer -->
  <ellipse cx="500" cy="175" rx="200" ry="65" fill="#d0e2ee" opacity="0.8"/>
  <ellipse cx="700" cy="160" rx="220" ry="68" fill="#d4e4f0" opacity="0.85"/>
  <ellipse cx="930" cy="178" rx="180" ry="62" fill="#d0e2ee" opacity="0.8"/>
  <!-- Partial cloud edge crossing sun -->
  <ellipse cx="370" cy="145" rx="150" ry="52" fill="#dde8f2" opacity="0.7"/>
  <!-- Horizon haze -->
  <rect x="0" y="490" width="1024" height="86" fill="#a8c8d8" opacity="0.3"/>
  <!-- ===== HOUSE ===== -->
  <rect x="620" y="340" width="404" height="236" fill="#e2ecf4"/>
  <line x1="620" y1="368" x2="1024" y2="368" stroke="#ccdae6" stroke-width="2"/>
  <line x1="620" y1="396" x2="1024" y2="396" stroke="#ccdae6" stroke-width="2"/>
  <line x1="620" y1="424" x2="1024" y2="424" stroke="#ccdae6" stroke-width="2"/>
  <line x1="620" y1="452" x2="1024" y2="452" stroke="#ccdae6" stroke-width="2"/>
  <line x1="620" y1="480" x2="1024" y2="480" stroke="#ccdae6" stroke-width="2"/>
  <line x1="620" y1="508" x2="1024" y2="508" stroke="#ccdae6" stroke-width="2"/>
  <line x1="620" y1="536" x2="1024" y2="536" stroke="#ccdae6" stroke-width="2"/>
  <polygon points="596,348 1024,348 1024,305 812,240 596,305" fill="#9aafc0"/>
  <line x1="596" y1="305" x2="812" y2="240" stroke="#8899aa" stroke-width="2"/>
  <line x1="812" y1="240" x2="1024" y2="305" stroke="#8899aa" stroke-width="2"/>
  <rect x="596" y="340" width="428" height="16" fill="#bacad8"/>
  <rect x="596" y="356" width="428" height="8" fill="#9aafc0"/>
  <!-- Window left -->
  <rect x="648" y="400" width="120" height="130" fill="#bcd8ea" opacity="0.8"/>
  <rect x="648" y="400" width="120" height="130" fill="none" stroke="#9aafc0" stroke-width="3"/>
  <line x1="708" y1="400" x2="708" y2="530" stroke="#9aafc0" stroke-width="2"/>
  <line x1="648" y1="465" x2="768" y2="465" stroke="#9aafc0" stroke-width="2"/>
  <!-- Window right -->
  <rect x="830" y="400" width="120" height="130" fill="#bcd8ea" opacity="0.8"/>
  <rect x="830" y="400" width="120" height="130" fill="none" stroke="#9aafc0" stroke-width="3"/>
  <line x1="890" y1="400" x2="890" y2="530" stroke="#9aafc0" stroke-width="2"/>
  <line x1="830" y1="465" x2="950" y2="465" stroke="#9aafc0" stroke-width="2"/>
  <!-- Attic window -->
  <rect x="740" y="263" width="70" height="56" fill="#bcd8ea" opacity="0.72"/>
  <rect x="740" y="263" width="70" height="56" fill="none" stroke="#8899aa" stroke-width="2"/>
  <line x1="775" y1="263" x2="775" y2="319" stroke="#8899aa" stroke-width="1.5"/>
  <!-- Sparkle -->
  <path d="M1005 558 l5-10 l5 10 l10 5 l-10 5 l-5 10 l-5-10 l-10-5 z" fill="white" opacity="0.8"/>
</svg>
