<svg viewBox="0 0 1024 576" xmlns="http://www.w3.org/2000/svg" width="1024" height="576">
  <!-- Very dark storm sky -->
  <rect width="1024" height="576" fill="#4a5568"/>
  <rect width="1024" height="200" fill="#3a4555" opacity="0.7"/>
  <!-- Dark storm clouds top -->
  <ellipse cx="100" cy="80" rx="210" ry="82" fill="#5a6a7a"/>
  <ellipse cx="310" cy="60" rx="240" ry="88" fill="#6a7a8a"/>
  <ellipse cx="560" cy="85" rx="260" ry="90" fill="#607080"/>
  <ellipse cx="820" cy="62" rx="230" ry="84" fill="#5a6878"/>
  <ellipse cx="1000" cy="88" rx="200" ry="80" fill="#566070"/>
  <!-- Heavy lower dark clouds -->
  <ellipse cx="60" cy="165" rx="200" ry="72" fill="#485565" opacity="0.96"/>
  <ellipse cx="280" cy="148" rx="260" ry="80" fill="#4d5e6e" opacity="0.96"/>
  <ellipse cx="560" cy="170" rx="280" ry="84" fill="#485565" opacity="0.96"/>
  <ellipse cx="840" cy="152" rx="250" ry="78" fill="#4d5e6e" opacity="0.96"/>
  <ellipse cx="1024" cy="172" rx="200" ry="72" fill="#485565" opacity="0.94"/>
  <!-- Third churning cloud layer -->
  <ellipse cx="150" cy="238" rx="220" ry="66" fill="#404d5a" opacity="0.92"/>
  <ellipse cx="420" cy="222" rx="260" ry="70" fill="#44515f" opacity="0.92"/>
  <ellipse cx="700" cy="240" rx="270" ry="68" fill="#404d5a" opacity="0.92"/>
  <ellipse cx="970" cy="226" rx="220" ry="66" fill="#44515f" opacity="0.9"/>
  <!-- Heavy rain streaks - diagonal -->
  <g stroke="rgba(140,170,200,0.6)" stroke-width="1.8" stroke-linecap="round">
    <line x1="30"  y1="248" x2="5"   y2="320"/>
    <line x1="30"  y1="330" x2="5"   y2="402"/>
    <line x1="30"  y1="412" x2="5"   y2="484"/>
    <line x1="30"  y1="494" x2="5"   y2="566"/>
    <line x1="75"  y1="245" x2="50"  y2="317"/>
    <line x1="75"  y1="327" x2="50"  y2="399"/>
    <line x1="75"  y1="409" x2="50"  y2="481"/>
    <line x1="75"  y1="491" x2="50"  y2="563"/>
    <line x1="120" y1="250" x2="95"  y2="322"/>
    <line x1="120" y1="332" x2="95"  y2="404"/>
    <line x1="120" y1="414" x2="95"  y2="486"/>
    <line x1="120" y1="496" x2="95"  y2="568"/>
    <line x1="165" y1="245" x2="140" y2="317"/>
    <line x1="165" y1="327" x2="140" y2="399"/>
    <line x1="165" y1="409" x2="140" y2="481"/>
    <line x1="165" y1="491" x2="140" y2="563"/>
    <line x1="210" y1="250" x2="185" y2="322"/>
    <line x1="210" y1="332" x2="185" y2="404"/>
    <line x1="210" y1="414" x2="185" y2="486"/>
    <line x1="210" y1="496" x2="185" y2="568"/>
    <line x1="255" y1="245" x2="230" y2="317"/>
    <line x1="255" y1="327" x2="230" y2="399"/>
    <line x1="255" y1="409" x2="230" y2="481"/>
    <line x1="255" y1="491" x2="230" y2="563"/>
    <line x1="300" y1="250" x2="275" y2="322"/>
    <line x1="300" y1="332" x2="275" y2="404"/>
    <line x1="300" y1="414" x2="275" y2="486"/>
    <line x1="300" y1="496" x2="275" y2="568"/>
    <line x1="345" y1="245" x2="320" y2="317"/>
    <line x1="345" y1="327" x2="320" y2="399"/>
    <line x1="345" y1="409" x2="320" y2="481"/>
    <line x1="345" y1="491" x2="320" y2="563"/>
    <line x1="390" y1="250" x2="365" y2="322"/>
    <line x1="390" y1="332" x2="365" y2="404"/>
    <line x1="390" y1="414" x2="365" y2="486"/>
    <line x1="390" y1="496" x2="365" y2="568"/>
    <line x1="435" y1="245" x2="410" y2="317"/>
    <line x1="435" y1="327" x2="410" y2="399"/>
    <line x1="435" y1="409" x2="410" y2="481"/>
    <line x1="435" y1="491" x2="410" y2="563"/>
    <line x1="480" y1="250" x2="455" y2="322"/>
    <line x1="480" y1="332" x2="455" y2="404"/>
    <line x1="480" y1="414" x2="455" y2="486"/>
    <line x1="480" y1="496" x2="455" y2="568"/>
    <line x1="525" y1="245" x2="500" y2="317"/>
    <line x1="525" y1="327" x2="500" y2="399"/>
    <line x1="525" y1="409" x2="500" y2="481"/>
    <line x1="525" y1="491" x2="500" y2="563"/>
    <line x1="570" y1="250" x2="545" y2="322"/>
    <line x1="570" y1="332" x2="545" y2="404"/>
    <line x1="570" y1="414" x2="545" y2="486"/>
    <line x1="570" y1="496" x2="545" y2="568"/>
  </g>
  <!-- Lightning bolt -->
  <polygon points="350,230 330,290 350,290 322,370 380,295 355,295 375,230" fill="#fff176" opacity="0.92"/>
  <polygon points="350,230 330,290 350,290 322,370 380,295 355,295 375,230" fill="none" stroke="#ffee58" stroke-width="1" opacity="0.7"/>
  <!-- Lightning glow halo -->
  <ellipse cx="350" cy="295" rx="55" ry="75" fill="#fff176" opacity="0.12"/>
  <!-- ===== HOUSE - darker tones for storm ===== -->
  <rect x="620" y="340" width="404" height="236" fill="#c5d0d8"/>
  <line x1="620" y1="368" x2="1024" y2="368" stroke="#b0bcc5" stroke-width="2"/>
  <line x1="620" y1="396" x2="1024" y2="396" stroke="#b0bcc5" stroke-width="2"/>
  <line x1="620" y1="424" x2="1024" y2="424" stroke="#b0bcc5" stroke-width="2"/>
  <line x1="620" y1="452" x2="1024" y2="452" stroke="#b0bcc5" stroke-width="2"/>
  <line x1="620" y1="480" x2="1024" y2="480" stroke="#b0bcc5" stroke-width="2"/>
  <line x1="620" y1="508" x2="1024" y2="508" stroke="#b0bcc5" stroke-width="2"/>
  <line x1="620" y1="536" x2="1024" y2="536" stroke="#b0bcc5" stroke-width="2"/>
  <polygon points="596,348 1024,348 1024,305 812,240 596,305" fill="#788898"/>
  <line x1="596" y1="305" x2="812" y2="240" stroke="#687888" stroke-width="2"/>
  <line x1="812" y1="240" x2="1024" y2="305" stroke="#687888" stroke-width="2"/>
  <rect x="596" y="340" width="428" height="16" fill="#9aaab8"/>
  <rect x="596" y="356" width="428" height="8" fill="#788898"/>
  <!-- Window left -->
  <rect x="648" y="400" width="120" height="130" fill="#8faabe" opacity="0.72"/>
  <rect x="648" y="400" width="120" height="130" fill="none" stroke="#788898" stroke-width="3"/>
  <line x1="708" y1="400" x2="708" y2="530" stroke="#788898" stroke-width="2"/>
  <line x1="648" y1="465" x2="768" y2="465" stroke="#788898" stroke-width="2"/>
  <!-- Lightning glow on window left -->
  <rect x="648" y="400" width="120" height="130" fill="#fff9c4" opacity="0.12"/>
  <!-- Window right -->
  <rect x="830" y="400" width="120" height="130" fill="#8faabe" opacity="0.72"/>
  <rect x="830" y="400" width="120" height="130" fill="none" stroke="#788898" stroke-width="3"/>
  <line x1="890" y1="400" x2="890" y2="530" stroke="#788898" stroke-width="2"/>
  <line x1="830" y1="465" x2="950" y2="465" stroke="#788898" stroke-width="2"/>
  <!-- Lightning glow on window right -->
  <rect x="830" y="400" width="120" height="130" fill="#fff9c4" opacity="0.12"/>
  <!-- Attic window -->
  <rect x="740" y="263" width="70" height="56" fill="#8faabe" opacity="0.65"/>
  <rect x="740" y="263" width="70" height="56" fill="none" stroke="#687888" stroke-width="2"/>
  <line x1="775" y1="263" x2="775" y2="319" stroke="#687888" stroke-width="1.5"/>
</svg>
