<svg viewBox="0 0 1024 576" xmlns="http://www.w3.org/2000/svg" width="1024" height="576">
  <!-- Sky background -->
  <rect width="1024" height="576" fill="#87CEEB"/>
  <!-- Sun glow -->
  <circle cx="280" cy="160" r="160" fill="#fffde7" opacity="0.35"/>
  <circle cx="280" cy="160" r="110" fill="#fff9c4" opacity="0.45"/>
  <!-- Sun body -->
  <circle cx="280" cy="160" r="78" fill="#FFD54F"/>
  <circle cx="280" cy="160" r="65" fill="#FFCA28"/>
  <!-- Sun rays -->
  <g stroke="#FFD54F" stroke-width="7" stroke-linecap="round" opacity="0.85">
    <line x1="280" y1="62" x2="280" y2="38"/>
    <line x1="280" y1="258" x2="280" y2="282"/>
    <line x1="182" y1="160" x2="158" y2="160"/>
    <line x1="378" y1="160" x2="402" y2="160"/>
    <line x1="211" y1="91" x2="194" y2="74"/>
    <line x1="349" y1="229" x2="366" y2="246"/>
    <line x1="349" y1="91" x2="366" y2="74"/>
    <line x1="211" y1="229" x2="194" y2="246"/>
    <line x1="193" y1="125" x2="172" y2="112"/>
    <line x1="367" y1="195" x2="388" y2="208"/>
    <line x1="367" y1="125" x2="388" y2="112"/>
    <line x1="193" y1="195" x2="172" y2="208"/>
  </g>
  <!-- Light sky gradient overlay on right -->
  <rect x="400" y="0" width="624" height="576" fill="#b8dff0" opacity="0.25"/>
  <!-- Distant fluffy clouds right side -->
  <ellipse cx="720" cy="100" rx="130" ry="55" fill="white" opacity="0.65"/>
  <ellipse cx="800" cy="80" rx="100" ry="48" fill="white" opacity="0.75"/>
  <ellipse cx="670" cy="90" rx="80" ry="40" fill="white" opacity="0.6"/>
  <ellipse cx="900" cy="120" rx="110" ry="50" fill="white" opacity="0.6"/>
  <ellipse cx="980" cy="95" rx="85" ry="42" fill="white" opacity="0.7"/>
  <!-- Light haze at bottom horizon -->
  <rect x="0" y="480" width="1024" height="96" fill="#c8e6c9" opacity="0.3"/>
  <!-- ===== HOUSE ===== -->
  <!-- Main body -->
  <rect x="620" y="340" width="404" height="236" fill="#e8eaed"/>
  <!-- Siding horizontal lines -->
  <line x1="620" y1="368" x2="1024" y2="368" stroke="#d0d3d8" stroke-width="2"/>
  <line x1="620" y1="396" x2="1024" y2="396" stroke="#d0d3d8" stroke-width="2"/>
  <line x1="620" y1="424" x2="1024" y2="424" stroke="#d0d3d8" stroke-width="2"/>
  <line x1="620" y1="452" x2="1024" y2="452" stroke="#d0d3d8" stroke-width="2"/>
  <line x1="620" y1="480" x2="1024" y2="480" stroke="#d0d3d8" stroke-width="2"/>
  <line x1="620" y1="508" x2="1024" y2="508" stroke="#d0d3d8" stroke-width="2"/>
  <line x1="620" y1="536" x2="1024" y2="536" stroke="#d0d3d8" stroke-width="2"/>
  <!-- Roof -->
  <polygon points="596,348 1024,348 1024,305 812,240 596,305" fill="#b0bec5"/>
  <line x1="596" y1="305" x2="812" y2="240" stroke="#90a4ae" stroke-width="2"/>
  <line x1="812" y1="240" x2="1024" y2="305" stroke="#90a4ae" stroke-width="2"/>
  <!-- Roof overhang -->
  <rect x="596" y="340" width="428" height="16" fill="#cfd8dc"/>
  <!-- Gutter -->
  <rect x="596" y="356" width="428" height="8" fill="#b0bec5"/>
  <!-- Window left -->
  <rect x="648" y="400" width="120" height="130" fill="#cce5f5" opacity="0.85"/>
  <rect x="648" y="400" width="120" height="130" fill="none" stroke="#b0bec5" stroke-width="3"/>
  <line x1="708" y1="400" x2="708" y2="530" stroke="#b0bec5" stroke-width="2"/>
  <line x1="648" y1="465" x2="768" y2="465" stroke="#b0bec5" stroke-width="2"/>
  <!-- Window right -->
  <rect x="830" y="400" width="120" height="130" fill="#cce5f5" opacity="0.85"/>
  <rect x="830" y="400" width="120" height="130" fill="none" stroke="#b0bec5" stroke-width="3"/>
  <line x1="890" y1="400" x2="890" y2="530" stroke="#b0bec5" stroke-width="2"/>
  <line x1="830" y1="465" x2="950" y2="465" stroke="#b0bec5" stroke-width="2"/>
  <!-- Attic window -->
  <rect x="740" y="263" width="70" height="56" fill="#cce5f5" opacity="0.75"/>
  <rect x="740" y="263" width="70" height="56" fill="none" stroke="#90a4ae" stroke-width="2"/>
  <line x1="775" y1="263" x2="775" y2="319" stroke="#90a4ae" stroke-width="1.5"/>
  <!-- Sun sparkle bottom right corner -->
  <path d="M1005 558 l5-10 l5 10 l10 5 l-10 5 l-5 10 l-5-10 l-10-5 z" fill="white" opacity="0.9"/>
</svg>
